PathFileType	4	(X/Y/Z)	static.trc
DataRate	CameraRate	NumFrames	NumMarkers	Units	OrigDataRate	OrigDataStartFrame	OrigNumFrames
250.000000	250.000000	4	58	mm	250.000000	362	483
Frame#	Time	RASI			LASI			RPSI			LPSI			RAIC			LAIC			RLFC			RMFC			RTH1			RTH2			RTH3			RLMAL			RMMAL			RTB1			RTB2			RTB3			RCAL			RMT1			RMT5			LLFC			LMFC			LTH1			LTH2			LTH3			LLMAL			LMMAL			LTB1			LTB2			LTB3			LCAL			LMT1			LMT5			C7			T10			CLAV			STRN			RACR			LACR			RHJC			LHJC			RKJC			LKJC			RAJC			LAJC			RMT3			LMT3			fRCAL			fLCAL			fRAJC			fLAJC			fRMT1			fLMT1			fRMT5			fLMT5			fRMT3			fLMT3			MTOR			MPEL			
		X1	Y1	Z1	X2	Y2	Z2	X3	Y3	Z3	X4	Y4	Z4	X5	Y5	Z5	X6	Y6	Z6	X7	Y7	Z7	X8	Y8	Z8	X9	Y9	Z9	X10	Y10	Z10	X11	Y11	Z11	X12	Y12	Z12	X13	Y13	Z13	X14	Y14	Z14	X15	Y15	Z15	X16	Y16	Z16	X17	Y17	Z17	X18	Y18	Z18	X19	Y19	Z19	X20	Y20	Z20	X21	Y21	Z21	X22	Y22	Z22	X23	Y23	Z23	X24	Y24	Z24	X25	Y25	Z25	X26	Y26	Z26	X27	Y27	Z27	X28	Y28	Z28	X29	Y29	Z29	X30	Y30	Z30	X31	Y31	Z31	X32	Y32	Z32	X33	Y33	Z33	X34	Y34	Z34	X35	Y35	Z35	X36	Y36	Z36	X37	Y37	Z37	X38	Y38	Z38	X39	Y39	Z39	X40	Y40	Z40	X41	Y41	Z41	X42	Y42	Z42	X43	Y43	Z43	X44	Y44	Z44	X45	Y45	Z45	X46	Y46	Z46	X47	Y47	Z47	X48	Y48	Z48	X49	Y49	Z49	X50	Y50	Z50	X51	Y51	Z51	X52	Y52	Z52	X53	Y53	Z53	X54	Y54	Z54	X55	Y55	Z55	X56	Y56	Z56	X57	Y57	Z57	X58	Y58	Z58	

363	1.448	522.280456542969	1042.5625	406.933776855469	518.3403320312502	1060.27587890625	190.636703491211	344.154998779297	1080.240356445313	356.8543701171876	345.279510498047	1085.865356445313	261.1148986816407	448.3612976074221	1112.550048828125	458.986022949219	458.1288146972659	1127.14306640625	162.5601959228516	420.0848388671877	551.2401123046877	490.9337158203127	405.9537353515627	520.7462158203127	370.1902770996095	443.0667114257815	805.2716674804692	502.3952941894534	488.9332580566409	712.9708251953127	490.5421142578127	425.8692626953127	628.4216308593752	492.9886169433596	366.4831542968751	96.00565338134771	507.4262695312502	396.0184326171877	105.3752441406251	417.2653808593752	435.5770568847659	396.8335571289065	427.6002502441409	443.7937316894534	331.1635742187501	483.4024047851565	427.4900512695315	258.0443725585939	442.0781555175784	312.3767395019532	44.31853103637697	454.8049011230471	530.806091308594	47.28579711914064	445.7359619140627	519.637878417969	43.5773391723633	554.8253173828127	420.2104797363284	545.8374633789065	109.7080230712891	411.1819763183596	519.933776855469	232.3785705566407	439.2100219726565	832.3295288085942	103.2964630126954	478.390808105469	741.185485839844	107.0461502075196	413.9959716796877	660.171325683594	111.5533905029297	372.2321777343751	100.115089416504	88.05607604980472	400.3374328613284	102.7783432006837	178.9101562500001	439.8015747070315	395.865173339844	170.4522705078126	450.6175842285159	324.3507385253907	121.8589248657227	425.0764465332034	258.0758056640626	167.0294189453126	318.0842895507814	44.54854583740236	134.2280731201172	541.9331054687502	43.19441223144533	162.6223297119141	533.1968994140627	41.32102203369142	52.4785079956055	345.2221679687501	1539.953857421876	313.3073730468751	333.0252380371095	1267.453369140625	308.1901245117189	486.5520019531252	1506.019287109375	317.7462463378907	566.2493896484377	1325.62744140625	314.3917236328126	345.2451171875001	1530.4775390625	490.1830749511721	346.2608032226564	1537.648559570313	144.3577728271485	467.6319313333061	989.4009767016599	366.5536891615286	465.0311841291707	1001.09299824291	223.7830718519294	413.0192871093752	535.9931640625002	430.5619964599611	415.696228027344	532.8856201171877	171.0432968139649	381.2507934570314	100.6904487609864	462.3458251953127	386.2848052978518	101.4467163085938	133.4831161499024	525.2219848632815	45.43156814575197	500.2806396484377	537.5650024414065	42.25771713256837	107.5504188537598	312.3767395019532	0	454.8049011230471	318.0842895507814	0	134.2280731201172	381.2507934570314	0	462.3458251953127	386.2848052978518	0	133.4831161499024	530.806091308594	0	445.7359619140627	541.9331054687502	0	162.6223297119141	519.637878417969	0	554.8253173828127	533.1968994140627	0	52.4785079956055	525.2219848632815	0	500.2806396484377	537.5650024414065	0	107.5504188537598	380.8200225830079	1528.524810791016	316.3986167907716	432.5138244628908	1067.236022949219	303.8849372863771	
364	1.452	522.295104980469	1042.523315429688	407.0345764160159	518.387145996094	1060.286865234375	190.7074890136719	344.0910949707032	1079.923706054688	357.0415649414064	345.2737731933595	1085.852172851563	261.1344299316407	448.3302001953127	1112.588500976563	458.995788574219	458.2071533203127	1127.141845703125	162.6290130615235	420.0847167968752	551.2525024414065	490.9139404296877	405.938171386719	520.7405395507815	370.2226867675782	443.1043395996096	805.318969726563	502.3801879882815	488.9098815917971	712.9797973632815	490.5351867675784	425.8629150390627	628.4173583984377	493.0153503417971	366.3021850585939	95.98014831542972	507.1890869140627	396.0156860351565	105.3943786621094	417.2653503417971	435.5659179687502	396.8384399414065	427.5964355468752	443.7848205566409	331.1710510253907	483.4004821777346	427.5148925781252	258.158416748047	442.0500793457034	312.3594055175782	44.31408309936525	454.9631652832034	530.820739746094	47.25416946411134	445.7442016601565	519.6140747070315	43.55123519897462	554.819030761719	420.100524902344	545.9377441406252	109.6029205322266	411.1561279296877	519.8937988281252	232.3757934570314	439.1846313476565	832.357299804688	103.2204055786133	478.4131469726565	741.1895141601565	107.0828552246094	414.049011230469	660.1984863281252	111.5566482543946	372.1896057128907	100.1204833984376	88.018180847168	400.3288269042971	102.7814407348633	178.9014587402344	439.8182373046877	395.8775329589846	170.4755401611329	450.6138305664065	324.3425292968751	121.8954010009766	425.0898742675784	258.0373535156251	167.0062713623047	318.0777893066407	44.5580406188965	134.2220611572266	541.868103027344	43.19694900512697	162.5544433593751	533.1760253906252	41.29143524169923	52.47412490844729	345.2288818359376	1539.944458007813	313.2804260253907	333.0337219238282	1267.45947265625	308.1906738281251	486.6128540039065	1506.027709960938	317.708953857422	566.3664550781252	1325.68359375	314.3698730468751	345.2739562988282	1530.425903320313	490.1778259277346	346.1800842285157	1537.577880859376	144.3794708251954	467.6902722299872	989.3165453610033	366.6237282471245	465.1107564779382	1001.041682885911	223.8333018940553	413.0114440917971	535.996520996094	430.5683135986329	415.6283264160159	532.9157714843752	170.989356994629	381.1589355468752	100.6872634887696	462.2272186279299	386.2592163085939	101.4509620666504	133.4598197937012	525.2174072265627	45.40270233154298	500.2816162109377	537.5220642089846	42.2441921234131	107.5142841339112	312.3594055175782	0	454.9631652832034	318.0777893066407	0	134.2220611572266	381.1589355468752	0	462.2272186279299	386.2592163085939	0	133.4598197937012	530.820739746094	0	445.7442016601565	541.868103027344	0	162.5544433593751	519.6140747070315	0	554.819030761719	533.1760253906252	0	52.47412490844729	525.2174072265627	0	500.2816162109377	537.5220642089846	0	107.5142841339112	380.823944091797	1528.49398803711	316.3866691589357	432.5117797851564	1067.146514892579	303.9795150756837	
365	1.456	522.5257568359377	1042.755493164063	407.2143554687502	518.371520996094	1060.266235351563	190.7584838867188	344.3021545410157	1080.206909179688	357.0303344726564	345.2796325683595	1085.888793945313	261.1582336425782	448.3196105957034	1112.618286132813	459.0093688964846	458.1340942382815	1127.169799804688	162.5796508789063	420.0769042968752	551.2488403320315	490.9338989257815	405.942810058594	520.7204589843752	370.257781982422	443.0739746093752	805.2699584960942	502.411560058594	489.0213623046877	712.9927368164065	490.6077575683596	425.853454589844	628.388366699219	493.0222778320315	366.4684448242189	96.02387237548834	507.3955383300784	396.0335388183596	105.396957397461	417.2534484863284	435.553649902344	396.8183288574221	427.5991821289065	443.776550292969	331.1450195312501	483.4094238281252	427.510437011719	258.0789489746095	442.0996398925784	312.4155273437501	44.28651046752931	454.7764587402346	530.8259887695315	47.26876831054689	445.7484130859377	519.608581542969	43.57223129272462	554.811950683594	420.292907714844	545.8673095703127	109.7101593017579	411.2263793945315	519.946228027344	232.5060882568361	439.3280029296877	832.3710937500005	103.3506622314454	478.446716308594	741.2007446289065	107.0801086425782	414.0614318847659	660.210144042969	111.556266784668	372.2323303222657	100.1223449707032	88.0422058105469	400.338806152344	102.7771072387696	178.8910675048829	439.8055419921877	395.8748474121096	170.4600677490235	450.598083496094	324.2957458496095	121.8768920898438	425.0755004882815	258.0516967773439	167.0052185058594	318.0935058593751	44.55506515502931	134.2438659667969	541.4690551757815	43.06388092041017	162.3512878417969	533.1821289062502	41.32073211669923	52.45988464355472	345.2366027832032	1539.959228515626	313.2893676757814	333.064666748047	1267.453857421875	308.2249755859376	486.6672363281252	1505.988525390625	317.6703491210939	566.4718017578127	1325.662963867188	314.3586425781251	345.1564025878907	1530.203002929688	490.1523437500002	346.1658325195314	1537.498901367188	144.3917541503907	467.8625397191224	989.4740306569652	366.9085730818541	465.1204648241279	1001.032297543149	224.0331480406103	413.0098571777346	535.9846496582034	430.5958404541017	415.7596435546877	532.9067687988284	171.108123779297	381.2509918212893	100.7104148864747	462.3244934082034	386.2855682373048	101.4497261047364	133.4666366577149	525.2172851562502	45.42049980163576	500.2801818847659	537.3255920410159	42.1923065185547	107.4055862426758	312.4155273437501	0	454.7764587402346	318.0935058593751	0	134.2438659667969	381.2509918212893	0	462.3244934082034	386.2855682373048	0	133.4666366577149	530.8259887695315	0	445.7484130859377	541.4690551757815	0	162.3512878417969	519.608581542969	0	554.811950683594	533.1821289062502	0	52.45988464355472	525.2172851562502	0	500.2801818847659	537.3255920410159	0	107.4055862426758	380.8065185546876	1528.412414550782	316.3759536743166	432.6197662353517	1067.279357910157	304.0403518676759	
366	1.46	522.3264770507815	1042.58642578125	407.1119384765627	518.365417480469	1060.271118164063	190.7734069824219	344.2828063964845	1080.114379882813	357.0091552734376	345.2940368652345	1085.891723632813	261.1646118164064	448.3178405761721	1112.62255859375	459.0536804199221	458.1999511718752	1127.132446289063	162.6456298828126	420.0635070800784	551.2192993164065	490.9480285644534	405.9326782226565	520.7281494140627	370.2584838867189	443.0709533691409	805.2728881835942	502.420349121094	489.1632995605471	713.1419067382815	490.7237854003909	425.8500671386721	628.3840332031252	493.0606689453127	366.4951171875001	95.94411468505862	507.459655761719	396.0335083007815	105.3808593750001	417.2703552246096	435.5417175292971	396.8182067871096	427.6110534667971	443.7490539550784	331.131805419922	483.4273071289065	427.5156555175784	258.1052856445314	442.0746154785159	312.3742675781251	44.29589843750001	454.6779479980471	530.784118652344	47.26715469360353	445.7209167480471	519.6098632812502	43.5780601501465	554.814880371094	420.2503356933596	545.8813476562502	109.7159042358399	411.126403808594	519.888366699219	232.4220275878907	439.3309631347659	832.3691406250005	103.3500976562501	478.508239746094	741.2022705078127	107.1319122314454	414.1309509277346	660.196228027344	111.5575790405274	372.1613159179689	100.1297454833985	87.98249816894534	400.3350524902346	102.7632751464844	178.903793334961	439.8199157714846	395.8883361816409	170.5083312988282	450.6145629882815	324.3340148925782	121.9375839233399	425.0970458984377	258.0450439453126	167.0171203613282	318.0873413085939	44.56700897216798	134.2239532470704	541.5653076171877	42.88862228393556	162.6116638183594	533.2190551757815	41.29914855957033	52.51674652099612	345.2717590332032	1539.968261718751	313.2751770019532	333.0704345703126	1267.457275390625	308.2426757812501	486.7438659667971	1505.9501953125	317.6186523437501	566.5679321289065	1325.656982421875	314.3057861328126	345.1800537109376	1530.160888671875	490.1525878906252	346.1135559082032	1537.422241210938	144.3980407714844	467.7018548386122	989.3882176461235	366.7350650028893	465.0872891359398	1001.061303936711	223.9370851768836	412.9980926513674	535.9737243652346	430.6032562255862	415.6883697509768	532.8848571777346	171.0689659118653	381.2643127441408	100.6624870300294	462.3650054931643	386.2481842041018	101.4465103149414	133.4431457519532	525.1969909667971	45.42260742187501	500.2678985595705	537.3921813964846	42.09388542175294	107.5642051696778	312.3742675781251	0	454.6779479980471	318.0873413085939	0	134.2239532470704	381.2643127441408	0	462.3650054931643	386.2481842041018	0	133.4431457519532	530.784118652344	0	445.7209167480471	541.5653076171877	0	162.6116638183594	519.6098632812502	0	554.814880371094	533.2190551757815	0	52.51674652099612	525.1969909667971	0	500.2678985595705	537.3921813964846	0	107.5642051696778	380.8273086547853	1528.375396728516	316.3611145019532	432.5671844482424	1067.215911865235	304.0147781372071	
